PathFileType	4	(X/Y/Z)	C:/Users/beibeiliu/ov580/test_trc/User1\sequence.5_training_dense_right.trc
DataRate	CameraRate	NumFrames	NumMarkers	Units	OrigDataRate	OrigDataStartFrame	OrigNumFrames
120	120	12	19	mm	120	169	269
Frame#	Time	ThumbCMC			ThumbMCP			ThumbIP			ThumbTip			IndexMCP			IndexPIP			IndexTip			MiddleMCP			MiddlePIP			MiddleTip			RingMCP			RingPIP			RingTip			PinkyMCP			PinkyPIP			PinkyTip			BackHand1			BackHand2			BackHand3	
		X0	Y0	Z0	X1	Y1	Z1	X2	Y2	Z2	X3	Y3	Z3	X4	Y4	Z4	X5	Y5	Z5	X6	Y6	Z6	X7	Y7	Z7	X8	Y8	Z8	X9	Y9	Z9	X10	Y10	Z10	X11	Y11	Z11	X12	Y12	Z12	X13	Y13	Z13	X14	Y14	Z14	X15	Y15	Z15	X16	Y16	Z16	X17	Y17	Z17	X18	Y18	Z18	
168	1.4	109.077	13.4815	38.4282	128.4	-13.1632	15.7704	141.493	-26.0523	-4.84848	161.971	-31.3059	-21.2607	107.668	20.9813	-44.1653	111.395	12.22	-72.4401	114.095	4.5473	-95.2982	144.536	17.8945	-46.0688	161.97	-11.6942	-36.3607	158.701	-3.90673	2.91227	172.772	22.2479	-30.9616	180.5	-6.79081	-8.12848	167.008	-0.630198	21.7413	188.76	30.4265	-16.9048	182.376	8.53816	-0.460585	164.277	12.5895	24.8165	145.867	69.4937	3.68727	140.692	78.0327	35.0504	114.248	57.4384	22.5821	
169	1.40833	110.578	13.8703	36.6226	129.742	-16.4968	16.2768	145.546	-27.4171	-3.70416	170.537	-34.274	-21.8235	114.29	19.2865	-51.0715	115.202	9.69115	-70.068	119.265	1.23406	-93.643	148.263	17.1731	-46.0401	166.228	-12.9656	-31.1725	158.463	-2.5315	6.0708	172.723	23.0355	-29.6696	182.072	-4.7173	-7.44428	168.25	1.48721	22.9183	189.547	32.751	-15.5781	188.669	11.647	-0.0241918	161.81	16.6408	24.7608	145.282	70.4655	1.19637	136.911	76.5649	39.5513	112.885	54.8945	21.5593	
170	1.41667	112.565	13.9438	31.4814	131.838	-17.7405	15.3902	149.867	-28.6999	-8.55496	172.162	-27.8221	-19.1438	115.643	20.2125	-48.2913	119.981	11.351	-70.6145	125.995	1.57836	-100.156	154.481	19.4198	-45.6112	169.216	-10.6249	-28.8469	159.158	2.1795	6.80622	172.802	23.9643	-29.5024	184.531	-0.278629	-10.7554	171.958	4.00765	23.4656	188.152	36.8436	-15.1267	186.283	12.9433	3.63449	164.138	20.0892	28.0718	145.589	69.3815	1.53343	135.233	78.1744	37.1574	113.238	55.3872	21.0162	
171	1.425	110.792	11.7964	30.2255	132.635	-12.4325	14.2244	151.534	-21.8922	-9.62358	174.211	-24.1879	-22.177	116.738	21.8127	-51.1657	122.723	14.1925	-74.5201	129.975	5.47563	-99.5917	156.977	19.4412	-46.6306	174.209	-5.02763	-28.6179	160.617	3.95911	7.55187	176.766	30.1448	-28.1593	183.854	0.854766	-7.6001	171.699	7.17409	24.8074	189.77	38.21	-14.3368	189.206	16.3074	2.17443	162.032	21.46	27.0331	142.442	70.51	4.00187	135.648	79.1547	36.3083	108.002	54.6032	19.8124	
172	1.43333	112.134	14.7111	28.8842	133.488	-11.6502	11.5972	151.748	-24.1013	-11.5883	176.417	-20.7617	-25.8203	117.221	23.9052	-50.3798	123.582	14.4037	-76.1412	132.746	9.88212	-102.014	154.924	22.1942	-46.9256	171.572	-5.25818	-30.1416	161.858	5.17401	4.61779	176.934	29.7971	-28.4999	187.207	6.06258	-9.83187	169.428	6.56668	20.4482	190.985	46.4026	-11.1125	189.459	18.5763	6.5171	161.024	24.4687	24.0212	142.762	72.5952	3.52197	132.998	79.0847	36.9827	110.667	58.265	19.2609	
173	1.44167	112.135	17.1722	29.287	134.224	-8.73988	10.7985	151.964	-21.7203	-12.2705	178.834	-20.2874	-26.8133	118.955	25.3107	-54.5271	127.316	20.5552	-76.1051	138.629	16.8629	-101.361	158.725	27.7232	-47.4487	173.951	-1.12794	-33.2891	160.399	6.96838	4.03298	176.83	34.6026	-28.5384	184.763	7.17552	-9.96806	168.782	10.8684	21.4915	190.472	48.6005	-10.6962	187.943	21.4846	2.7086	160.376	23.7292	23.9927	142.135	73.7287	6.28488	131.634	82.8698	39.3312	106.936	56.002	17.0869	
174	1.45	110.541	16.5448	29.3616	135.424	-8.32256	6.91365	152.446	-18.1522	-9.72507	179.833	-19.7674	-26.1211	120.239	28.2548	-55.4151	127.742	21.7135	-77.1385	139.49	19.3903	-103.88	158.528	32.3949	-47.1304	175.589	4.86026	-35.9361	160.157	5.26196	2.4361	177.342	37.7841	-29.1368	186.019	8.95936	-6.30955	170.769	14.0185	22.3068	188.936	48.9363	-11.5978	188.249	24.2336	3.80879	159.995	28.1984	22.9751	140.106	77.5731	4.24773	132.841	84.2877	40.1173	108.346	58.176	18.4803	
175	1.45833	110.708	17.556	27.0736	135.295	-7.54976	6.34446	153.314	-17.8435	-13.5716	177.235	-14.1912	-23.7956	121.042	31.4923	-53.9336	128.313	25.3627	-78.2804	137.743	19.8063	-104.709	155.717	32.4508	-47.7127	174.907	3.32001	-32.4191	164.394	10.9803	1.98433	178.018	38.236	-28.8905	184.866	11.8237	-8.22943	170.622	15.0097	17.97	190.029	48.6287	-11.8495	185.042	25.8417	4.01893	162.211	28.1449	25.853	140.949	81.0307	6.42787	129.697	82.3003	40.1616	107.519	61.4216	15.6142	
176	1.46667	110.312	19.0497	27.3067	133.483	-6.3411	6.26213	153.144	-17.1173	-15.1825	177.234	-10.9592	-25.5282	122.079	33.3976	-56.4933	126.149	25.085	-79.4338	135.525	21.2646	-101.965	158.636	32.6312	-49.0338	174.776	5.79574	-33.8056	162.925	12.3674	2.6216	175.052	36.5791	-30.6513	183.676	13.4505	-12.2444	167.963	17.8183	21.1038	187.424	51.1565	-12.8172	189.241	28.4929	5.55621	163.788	30.6041	26.0801	141.398	79.2517	1.5865	128.696	85.0148	39.494	108.222	59.5605	15.6212	
177	1.475	108.317	17.6043	28.3131	132.438	-8.97442	7.92034	152.866	-12.5191	-15.1116	178.442	-16.5564	-26.8564	117.599	30.1594	-56.9052	128.513	26.58	-81.6816	136.247	22.3315	-103.056	155.807	36.0176	-47.8192	172.654	4.38189	-34.1499	159.691	10.9551	4.10371	177.409	41.3667	-28.7206	185.649	14.8712	-9.28446	167.475	17.1783	20.1057	187.684	54.1309	-11.256	185.696	28.1572	1.80835	158.296	32.5521	22.0818	137.47	80.087	5.26953	128.403	86.7852	39.2141	104.452	60.5073	16.5749	
178	1.48333	107.93	19.2747	28.3439	132.311	-8.79167	4.87017	150.766	-19.2901	-14.5324	176.587	-17.228	-27.7431	116.714	29.8036	-53.6745	125.748	25.549	-78.8256	134.816	20.8221	-104.481	154.082	33.2674	-47.8478	172.703	5.29317	-37.2052	158.598	10.0396	3.59282	174.515	36.2089	-29.8617	185.553	15.061	-8.25294	168.337	17.1545	20.0438	183.044	52.4803	-13.6812	183.942	27.0666	1.90227	160.344	28.9267	24.0665	137.508	77.2469	2.86165	128.132	86.2734	35.9078	107.358	60.0606	14.9159	
179	1.49167	105.224	18.1579	25.2043	128.665	-7.29256	7.80733	146.594	-16.2324	-9.76441	171.273	-16.8939	-24.7665	118.359	30.4826	-58.5575	122.637	20.935	-79.455	135.413	21.1558	-100.283	151.958	32.6672	-48.499	173.255	6.49963	-36.4699	161.308	8.21899	1.87321	174.96	37.7908	-29.0239	179.863	10.3653	-8.27541	163.42	15.447	21.2679	182.599	46.6226	-13.5494	181.893	25.6741	1.64493	156.862	28.7432	24.9467	137.808	78.5265	3.29982	127.845	85.6946	37.6915	103.672	60.2342	14.9482	
